#!OML:ASF F:\VICON\USERDATA\INSTALL\rory3\rory3.ASF
:FULLY-SPECIFIED
:DEGREES
1971
root -9.02043 17.9795 0.364322 533.077 31.5922 -546.8
lowerback 10.4567 2.27377 -3.58713
upperback 0.835312 2.63278 -1.37523
thorax -5.0849 1.40449 0.189232
lowerneck -19.371 -6.15051 -11.6832
upperneck 33.437 -6.01748 7.51498
head 15.7348 -2.41845 4.24776
rclavicle -4.44532e-014 2.18663e-015
rhumerus -33.295 -9.16846 -84.3306
rradius 27.8223
rwrist 9.90394
rhand -16.6037 8.30453
rfingers 7.12502
rthumb 9.61771 -21.4559
lclavicle -4.44532e-014 2.18663e-015
lhumerus -40.6278 7.1868 79.776
lradius 28.5605
lwrist -6.39437
lhand -20.8885 24.5714
lfingers 7.12502
lthumb 5.48202 54.4805
rfemur -10.2016 -4.34336 16.4639
rtibia 66.8069
rfoot 2.15638 0.354897
rtoes 3.55968
lfemur -0.715058 1.4054 -28.3638
ltibia 9.36038
lfoot -1.39869 -10.9867
ltoes 6.13351
1972
root -8.97104 17.9813 0.262307 532.924 31.6833 -546.79
lowerback 10.562 2.09765 -3.6285
upperback 0.872905 2.39336 -1.31498
thorax -5.10059 1.28805 0.308326
lowerneck -19.5569 -6.10711 -11.6636
upperneck 33.6143 -5.90507 7.41756
head 15.845 -2.38158 4.23153
rclavicle -8.55023e-014 1.59028e-015
rhumerus -33.54 -9.00111 -84.136
rradius 27.8647
rwrist 9.56421
rhand -16.7475 8.28323
rfingers 7.12502
rthumb 9.47899 -21.4836
lclavicle -8.55023e-014 1.59028e-015
lhumerus -40.3648 7.38851 79.7537
lradius 28.4414
lwrist -6.36783
lhand -21.4226 24.142
lfingers 7.12502
lthumb 4.9663 54.0638
rfemur -11.1302 -4.76399 16.3912
rtibia 67.5313
rfoot 1.30557 -0.710761
rtoes 2.32969
lfemur -0.366979 1.26088 -28.4036
ltibia 9.82114
lfoot -1.2503 -10.5489
ltoes 5.94365
1973
root -8.92176 17.98 0.158534 532.769 31.9085 -546.908
lowerback 10.5495 1.97728 -3.74015
upperback 0.896195 2.22326 -1.28888
thorax -5.06848 1.20654 0.424932
lowerneck -19.6867 -6.0807 -11.7463
upperneck 33.7761 -5.81349 7.40317
head 15.9466 -2.35543 4.26582
rclavicle 9.56651e-016 -1.47101e-014
rhumerus -33.7365 -9.12105 -83.8348
rradius 27.829
rwrist 9.32682
rhand -16.7302 8.46853
rfingers 7.12502
rthumb 9.49568 -21.2975
lclavicle 9.56651e-016 -1.47101e-014
lhumerus -40.1705 7.51741 79.7403
lradius 28.5289
lwrist -6.13047
lhand -21.3485 24.017
lfingers 7.12502
lthumb 5.03782 53.9371
rfemur -12.0929 -5.03074 16.1917
rtibia 68.0926
rfoot 0.646944 -1.58425
rtoes 3.21711
lfemur -0.0142136 1.25205 -28.5563
ltibia 10.1631
lfoot -2.03461 -10.3135
ltoes 4.51078
1974
root -8.87234 17.9754 0.0619738 532.693 32.2039 -546.994
lowerback 10.514 1.90556 -3.84565
upperback 0.911001 2.11901 -1.25736
thorax -5.03421 1.15704 0.534286
lowerneck -19.7344 -6.07451 -11.8034
upperneck 33.7918 -5.7687 7.35283
head 15.9604 -2.35519 4.26165
rclavicle -9.45345e-014 -2.64384e-014
rhumerus -33.9476 -9.51525 -83.4364
rradius 27.8284
rwrist 9.2128
rhand -16.6317 8.51756
rfingers 7.12502
rthumb 9.5907 -21.2441
lclavicle -9.45345e-014 -2.64384e-014
lhumerus -39.878 7.49454 79.8331
lradius 28.5941
lwrist -5.55108
lhand -21.2009 24.0675
lfingers 7.12502
lthumb 5.18035 53.9842
rfemur -13.1336 -5.12027 16.1084
rtibia 68.5056
rfoot 0.100635 -2.29788
rtoes 4.56185
lfemur 0.270985 1.42142 -28.6442
ltibia 10.4277
lfoot -2.91085 -10.1749
ltoes 3.28136
1975
root -8.82341 17.9703 -0.0356715 532.541 32.3239 -547.026
lowerback 10.6079 1.75524 -3.89424
upperback 0.93627 1.91203 -1.2238
thorax -5.05449 1.05677 0.625371
lowerneck -19.6976 -6.0379 -11.8033
upperneck 33.7182 -5.71799 7.31321
head 15.9064 -2.34526 4.24876
rclavicle -2.04251e-014 9.93923e-016
rhumerus -34.1794 -9.93832 -83.0294
rradius 27.7919
rwrist 9.12823
rhand -16.6019 8.74205
rfingers 7.12502
rthumb 9.61948 -21.0183
lclavicle -2.04251e-014 9.93923e-016
lhumerus -39.6743 7.4629 79.9366
lradius 28.5456
lwrist -5.65915
lhand -21.6545 23.923
lfingers 7.12502
lthumb 4.74243 53.8499
rfemur -13.9846 -5.38456 16.0504
rtibia 68.7449
rfoot -0.535756 -2.70343
rtoes 4.57176
lfemur 0.615705 1.41965 -28.7044
ltibia 10.8403
lfoot -3.58289 -9.95497
ltoes 3.3613
1976
root -8.77639 17.962 -0.134411 532.365 32.3295 -546.995
lowerback 10.7498 1.54717 -3.89744
upperback 0.987211 1.63447 -1.1448
thorax -5.07085 0.920969 0.748916
lowerneck -19.7001 -5.99555 -11.8627
upperneck 33.7142 -5.65033 7.34036
head 15.8995 -2.32442 4.28361
rclavicle 9.34288e-014 7.15625e-015
rhumerus -34.3428 -10.1977 -82.604
rradius 27.6926
rwrist 8.94105
rhand -16.6732 8.85768
rfingers 7.12502
rthumb 9.55065 -20.9059
lclavicle 9.34288e-014 7.15625e-015
lhumerus -39.4357 7.34858 80.1274
lradius 28.5576
lwrist -5.62083
lhand -22.0388 23.9252
lfingers 7.12502
lthumb 4.37134 53.8601
rfemur -14.7057 -5.76299 16.0096
rtibia 68.8087
rfoot -1.45581 -2.9407
rtoes 3.54933
lfemur 0.954726 1.45794 -28.7152
ltibia 11.387
lfoot -4.1142 -9.83524
ltoes 4.9452
1977
root -8.72777 17.9517 -0.224809 532.308 32.5108 -546.936
lowerback 10.8381 1.39151 -3.91596
upperback 1.01196 1.4251 -1.06985
thorax -5.08732 0.818743 0.867979
lowerneck -19.7169 -5.94264 -11.8358
upperneck 33.66 -5.59034 7.32861
head 15.8661 -2.3027 4.28113
rclavicle -1.39311e-013 2.26615e-014
rhumerus -34.4933 -10.2266 -82.3316
rradius 27.7278
rwrist 8.45557
rhand -16.7919 8.56752
rfingers 7.12502
rthumb 9.43609 -21.2012
lclavicle -1.39311e-013 2.26615e-014
lhumerus -39.0792 7.23079 80.2396
lradius 28.6903
lwrist -4.91536
lhand -21.265 24.3481
lfingers 7.12502
lthumb 5.11847 54.2663
rfemur -15.6024 -5.98347 16.083
rtibia 68.7427
rfoot -2.44793 -3.14519
rtoes 2.53764
lfemur 1.16381 1.71911 -28.6519
ltibia 11.9033
lfoot -4.7216 -9.74122
ltoes 5.65742
1978
root -8.6762 17.9381 -0.315042 532.267 32.7896 -546.984
lowerback 10.8212 1.28539 -4.04301
upperback 1.02901 1.27202 -1.03509
thorax -5.0565 0.745714 0.999749
lowerneck -19.7004 -5.90193 -11.7919
upperneck 33.5381 -5.55371 7.28708
head 15.793 -2.29482 4.25372
rclavicle 6.15736e-014 -7.15625e-015
rhumerus -34.6385 -10.2429 -82.1269
rradius 27.7821
rwrist 7.9523
rhand -17.0321 8.19874
rfingers 7.12502
rthumb 9.20437 -21.5804
lclavicle 6.15736e-014 -7.15625e-015
lhumerus -38.7306 7.04763 80.3383
lradius 28.7204
lwrist -4.72837
lhand -21.2296 24.6034
lfingers 7.12502
lthumb 5.15263 54.5208
rfemur -16.5621 -6.01509 16.1107
rtibia 68.5338
rfoot -3.38046 -3.35964
rtoes 2.96305
lfemur 1.2824 1.91912 -28.6874
ltibia 12.4394
lfoot -4.90314 -9.57498
ltoes 7.78433
1979
root -8.62474 17.9244 -0.408199 532.057 32.9452 -547.241
lowerback 10.8003 1.20949 -4.27559
upperback 1.1196 1.15095 -1.101
thorax -4.94671 0.690357 1.08142
lowerneck -19.8487 -5.92166 -11.6042
upperneck 33.5401 -5.61512 7.17904
head 15.8232 -2.31525 4.15865
rclavicle 1.31272e-013 -1.43125e-014
rhumerus -34.7453 -10.6047 -81.8806
rradius 27.8526
rwrist 7.61014
rhand -17.1162 8.20165
rfingers 7.12502
rthumb 9.12317 -21.581
lclavicle 1.31272e-013 -1.43125e-014
lhumerus -38.2286 6.64688 80.4824
lradius 28.7343
lwrist -4.7564
lhand -21.2254 24.6307
lfingers 7.12502
lthumb 5.15668 54.548
rfemur -17.3894 -6.07343 15.8718
rtibia 68.187
rfoot -4.55429 -3.41733
rtoes 3.96201
lfemur 1.43085 1.95815 -28.9434
ltibia 13.045
lfoot -4.95778 -9.39309
ltoes 10.5161
